<?xml version="1.0" encoding="UTF-8"?>
<!DOCTYPE svg PUBLIC "-//W3C//DTD SVG 1.1//EN" "http://www.w3.org/Graphics/SVG/1.1/DTD/svg11.dtd">
<svg xmlns="http://www.w3.org/2000/svg" version="1.1" width="180px" height="180px" style="shape-rendering:geometricPrecision; text-rendering:geometricPrecision; image-rendering:optimizeQuality; fill-rule:evenodd; clip-rule:evenodd" xmlns:xlink="http://www.w3.org/1999/xlink">
<g><path fill="#323266" fill-opacity="0.992" d="M 70.06,26.59 C 71.19,26.3 72.34,26.16 73.5,26.17 C 104.5,26.18 135.5,26.18 166.5,26.16 C 168.41,26.1 170.18,26.56 171.81,27.54 C 172.19,27.72 172.58,27.88 172.98,28.02 C 173.16,28.48 173.41,28.89 173.74,29.25 C 174.14,29.86 174.53,30.49 174.91,31.11 C 175.12,31.55 175.34,31.98 175.58,32.41 C 175.69,32.63 175.79,32.85 175.9,33.08 C 176.06,33.46 176.21,33.85 176.35,34.24 C 177.03,36.14 177.01,38.03 176.27,39.92 C 156,74.53 135.69,109.12 115.34,143.69 C 113.94,145.95 112.34,148.05 110.53,149.99 C 108.64,151.69 106.45,152.84 103.98,153.43 C 102.33,153.72 100.68,153.75 99.03,153.54 C 69.86,147.79 40.72,141.92 11.59,135.94 C 7.64,134.08 4.93,131.09 3.48,126.96 C 3.21,125.64 3.25,124.32 3.61,123.02 C 4.32,121.24 5.25,119.58 6.39,118.04 C 24.95,90.16 43.29,62.14 61.41,33.97 C 62.46,32.35 63.64,30.84 64.95,29.44 C 66.46,28.15 68.17,27.2 70.06,26.59 Z M 16.21,119.95 C 17.01,121.08 18.13,121.71 19.55,121.85 C 26.92,123.15 34.28,124.45 41.64,125.75 C 59.62,128.54 77.56,131.56 95.45,134.81 C 97.32,135.1 99.16,134.98 100.95,134.44 C 101.72,133.87 102.37,133.18 102.91,132.39 C 120.82,102.68 138.81,73.01 156.88,43.39 C 157.85,41.77 158.66,40.08 159.33,38.32 C 159.71,37.26 159.38,36.58 158.33,36.26 C 157.09,35.8 155.81,35.54 154.5,35.47 C 127.52,35.49 100.54,35.49 73.56,35.49 C 71.19,35.53 69.37,36.55 68.09,38.57 C 51.4,64.46 34.61,90.28 17.74,116.05 C 17.12,117.32 16.61,118.62 16.21,119.95 Z M 63.95,81.02 C 64.14,79.48 64.61,78.04 65.37,76.69 C 69.01,71.04 72.6,65.35 76.13,59.63 C 76.57,58.63 76.87,57.58 77.05,56.5 C 77.6,51.83 78.35,47.2 79.29,42.59 C 79.47,41.62 79.94,40.81 80.68,40.16 C 81.09,40.2 81.38,40.41 81.58,40.78 C 81.92,42.08 82.52,43.26 83.37,44.31 C 84.42,47.11 85.56,49.87 86.78,52.6 C 87.2,53.31 87.81,53.79 88.59,54.05 C 90.89,54.33 93.19,54.57 95.5,54.78 C 105.17,55.02 114.84,55.44 124.49,56.03 C 125.84,56.11 127,56.59 127.97,57.48 C 128.22,59.02 128.05,60.52 127.46,61.98 C 123.42,68.55 119.39,75.13 115.38,81.71 C 112.53,85.97 108.57,87.72 103.5,86.96 C 92.86,85.61 82.19,84.59 71.48,83.91 C 69.28,83.59 67.1,83.1 64.97,82.44 C 64.41,82.13 64.07,81.65 63.95,81.02 Z M 148.12,61.87 C 145.86,65.03 143.86,68.34 142.11,71.79 C 140.31,74.47 138.59,77.2 136.98,80 C 135.41,82.72 133.77,85.41 132.06,88.05 C 130.66,90.32 129.28,92.6 127.91,94.89 C 126.28,97.51 124.69,100.16 123.14,102.82 C 122.17,104.49 121.18,106.14 120.17,107.78 C 117.47,112.05 114.84,116.35 112.26,120.69 C 110.19,124.13 108.12,127.58 106.05,131.02 C 105.2,132.6 104.15,134.04 102.91,135.33 C 101.09,136.99 98.95,137.55 96.5,137.01 C 92.66,136.46 88.83,135.84 85.01,135.16 C 81.35,134.45 77.69,133.82 74.01,133.26 C 71.66,132.89 69.31,132.51 66.96,132.13 C 65.29,131.83 63.62,131.52 61.95,131.22 C 59.96,130.84 57.97,130.49 55.97,130.19 C 53.94,129.91 51.92,129.61 49.9,129.29 C 48.34,129.02 46.79,128.72 45.24,128.4 C 43.81,128.09 42.38,127.88 40.92,127.76 C 39.32,127.35 37.68,126.97 35.99,126.65 C 35.33,125.94 34.5,125.53 33.51,125.43 C 32.55,125.58 31.59,125.65 30.62,125.65 C 28.26,125.17 25.88,124.88 23.47,124.8 C 22.69,124.76 22.01,124.99 21.44,125.48 C 21.7,126.05 21.79,126.65 21.72,127.28 C 21.29,128.61 21,129.98 20.87,131.38 C 20.34,132.39 19.87,133.43 19.47,134.49 C 21.3,135.7 23.32,136.51 25.52,136.92 C 26.65,137.15 27.77,137.12 28.89,136.84 C 30.47,137.74 32.12,138.01 33.86,137.65 C 37.13,138.86 40.5,139.73 43.96,140.24 C 45.64,140.52 47.3,140.83 48.96,141.17 C 50.61,141.51 52.27,141.85 53.92,142.19 C 55.6,142.53 57.28,142.84 58.97,143.14 C 60.63,143.44 62.3,143.76 63.96,144.08 C 65.63,144.42 67.29,144.75 68.96,145.08 C 72.6,145.87 76.26,146.58 79.94,147.21 C 86.11,148.51 92.31,149.72 98.52,150.83 C 102.82,151.38 106.53,150.15 109.64,147.14 C 112.16,144.04 114.35,140.71 116.19,137.16 C 118.79,132.77 121.38,128.37 123.96,123.97 C 125.73,121.06 127.47,118.13 129.2,115.2 C 130.2,113.49 131.22,111.8 132.25,110.11 C 134.21,106.78 136.17,103.46 138.16,100.15 C 139.59,97.85 140.98,95.52 142.32,93.17 C 143.71,90.82 145.11,88.49 146.53,86.17 C 148.68,82.86 150.55,79.4 152.14,75.8 C 152.66,75.73 153.05,75.46 153.32,75.01 C 155.15,72.02 156.79,68.93 158.21,65.74 C 158.55,65.88 158.82,65.79 159.01,65.46 C 160.07,63.8 161.07,62.11 162.01,60.38 C 163.04,58.74 163.78,56.97 164.24,55.1 C 164.3,54.52 164.16,54 163.81,53.54 C 162.42,52.24 160.87,51.19 159.15,50.38 C 157.47,49.59 155.96,49.8 154.61,51 C 152.04,54.39 149.88,58.01 148.12,61.87 Z M 80.91,62.01 C 81.36,62.47 81.91,62.72 82.55,62.77 C 88.55,62.95 94.53,63.32 100.51,63.88 C 101.88,63.9 103.12,63.49 104.21,62.65 C 105.01,61.72 104.78,61.15 103.52,60.95 C 97.52,60.56 91.51,60.23 85.5,59.99 C 84.26,60.02 83.05,60.21 81.87,60.56 C 81.36,60.91 81.04,61.39 80.91,62.01 Z M 76.13,69 C 76.57,69.29 77.04,69.52 77.55,69.7 C 80.19,70.08 82.84,70.41 85.5,70.69 C 93.92,71.13 102.32,71.72 110.71,72.47 C 111.95,72.42 113.14,72.16 114.28,71.69 C 115.24,70.69 115.01,70.03 113.6,69.71 C 102.85,68.82 92.08,68.06 81.31,67.44 C 79.39,67.38 77.66,67.9 76.13,69 Z M 71.16,76.75 C 72.89,77.38 74.67,77.8 76.5,78.01 C 83.84,78.67 91.17,79.35 98.5,80.05 C 99.73,80.04 100.89,79.76 101.98,79.21 C 103.26,78.13 103.11,77.37 101.51,76.94 C 93.51,76.24 85.5,75.53 77.5,74.82 C 76.17,74.83 74.85,74.95 73.55,75.18 C 72.56,75.41 71.76,75.93 71.16,76.75 Z M 62.04,94 C 63.58,89.3 66.78,86.35 71.62,85.15 C 73.57,84.91 75.2,85.51 76.49,86.95 C 77.1,88.79 76.84,90.5 75.69,92.07 C 73.7,95.06 70.97,97.02 67.5,97.96 C 65.7,98.35 64.1,97.96 62.68,96.81 C 62.21,95.94 62,95 62.04,94 Z M 84.72,97 C 84.91,95.22 85.62,93.67 86.84,92.35 C 90.09,88.39 94.16,87.1 99.04,88.46 C 100.82,90.54 100.95,92.74 99.43,95.05 C 97.27,98.27 94.3,100.29 90.51,101.09 C 88.71,101.38 87.07,101 85.58,99.96 C 85.02,99.06 84.73,98.08 84.72,97 Z M 67.23,92.2 C 67.28,92.58 67.33,92.95 67.38,93.32 C 69.71,93.46 71.08,92.38 71.48,90.1 C 70.55,89.91 69.67,90.03 68.82,90.46 C 68.28,91.03 67.76,91.61 67.23,92.2 Z M 90.16,95.18 C 90.19,95.48 90.26,95.76 90.37,96.03 C 92.96,96.4 94.44,95.32 94.81,92.79 C 92.59,92.3 91.03,93.1 90.16,95.18 Z M 32.66,113.34 C 33.9,109.8 35.7,106.54 38.06,103.57 C 39.39,101.69 40.96,101.42 42.79,102.78 C 42.99,103.95 43.11,105.13 43.14,106.32 C 43.26,106.38 43.39,106.45 43.51,106.51 C 45.19,105.38 46.89,104.29 48.62,103.22 C 49.24,103.01 49.88,102.9 50.53,102.9 C 51.12,102.87 51.56,103.11 51.84,103.62 C 50.55,106.15 49.13,108.62 47.57,111.03 C 46.66,112.11 45.75,113.19 44.85,114.28 C 44.36,114.6 43.83,114.79 43.24,114.83 C 42.84,114.96 42.52,114.87 42.3,114.55 C 42.96,113.02 43.67,111.5 44.4,109.99 C 44.62,109.68 44.59,109.4 44.32,109.15 C 43.13,109.77 42.04,110.54 41.04,111.48 C 39.97,112.11 39.36,111.83 39.22,110.63 C 39.31,109.96 39.44,109.3 39.62,108.65 C 39.45,108.23 39.15,108.11 38.72,108.27 C 38.16,109.01 37.68,109.81 37.28,110.67 C 36.59,111.31 35.93,111.98 35.3,112.68 C 34.4,112.84 33.52,113.06 32.66,113.34 Z M 72.04,108.77 C 70.46,109.16 68.93,109.01 67.44,108.33 C 66.13,108.39 65.78,108.98 66.39,110.1 C 68.31,110.91 69.17,112.34 68.95,114.4 C 68.45,115.23 68.13,116.12 67.98,117.07 C 66.23,117.77 64.4,118.19 62.5,118.31 C 60.48,118.1 58.82,117.21 57.52,115.64 C 58.25,115.35 58.96,115.02 59.66,114.65 C 61.26,114.99 62.85,115.1 64.46,114.99 C 64.93,114.67 64.98,114.29 64.61,113.85 C 63.77,113.35 62.98,112.78 62.25,112.15 C 61.32,110.69 61.44,109.3 62.62,107.98 C 64.5,105.98 66.8,105.23 69.51,105.74 C 70.98,105.99 72,106.78 72.57,108.09 C 72.42,108.34 72.24,108.57 72.04,108.77 Z M 133.37,118.83 C 134.33,115.66 135.79,112.74 137.75,110.06 C 138.67,108.99 139.58,107.96 140.47,106.96 C 141.62,108.23 142.71,109.56 143.74,110.95 C 146.01,114.77 148.27,118.58 150.53,122.4 C 150.29,122.73 149.96,122.85 149.53,122.75 C 146.22,122.13 142.92,121.47 139.63,120.78 C 137.5,120.26 135.42,119.61 133.37,118.83 Z M 45.18,118.98 C 45.88,118.25 46.68,117.65 47.59,117.18 C 48.25,116.51 48.8,115.76 49.26,114.93 C 50.12,112.51 50.71,110.02 51.01,107.46 C 51.69,106.78 52.51,106.64 53.44,107.02 C 53.65,107.2 53.85,107.38 54.05,107.56 C 54.01,109.01 53.86,110.41 53.61,111.77 C 54.08,111.77 54.47,111.59 54.77,111.22 C 55.66,110.05 56.71,109.07 57.94,108.26 C 59.01,107.74 59.98,107.85 60.85,108.58 C 59.94,109.89 58.86,111.07 57.61,112.11 C 55.33,114.18 53,116.19 50.62,118.15 C 49.18,119.38 47.54,119.91 45.69,119.74 C 45.35,119.6 45.18,119.34 45.18,118.98 Z M 81.05,113.74 C 80.67,113.89 80.35,114.11 80.09,114.43 C 79.3,115.54 78.7,116.74 78.29,118.02 C 77.54,119.66 76.31,120.31 74.59,119.96 C 74.01,119.36 73.97,118.71 74.44,118 C 75.11,117.01 75.79,116.03 76.48,115.05 C 76.99,113.56 76.53,113.13 75.1,113.74 C 74.09,115.01 73.04,116.26 71.96,117.48 C 71.49,118.05 70.92,118.47 70.24,118.73 C 68.54,119.34 67.78,118.79 67.98,117.07 C 68.62,116.55 69.24,115.99 69.82,115.4 C 70.81,113.68 71.89,112.02 73.06,110.42 C 73.56,109.34 74.17,108.35 74.91,107.43 C 75.68,106.95 76.51,106.84 77.37,107.12 C 77.86,107.4 77.99,107.8 77.79,108.32 C 77.38,108.94 77.15,109.61 77.11,110.34 C 78.08,110.78 79.09,111.12 80.15,111.36 C 80.73,112.04 81.03,112.84 81.05,113.74 Z M 90.64,115.89 C 90.15,117.46 89.25,118.73 87.93,119.69 C 87.53,120.24 87.03,120.65 86.42,120.95 C 83,122.63 80.49,121.75 78.88,118.32 C 79.32,118.16 79.67,117.88 79.93,117.49 C 80.49,116.31 81.14,115.19 81.87,114.11 C 84.03,112.19 86.44,111.71 89.11,112.65 C 90.59,113.31 91.1,114.39 90.64,115.89 Z M 89,120.32 C 90.25,119.56 90.97,118.45 91.17,117.01 C 91.87,116.27 92.5,115.48 93.07,114.62 C 93.46,114.17 93.94,113.85 94.5,113.64 C 96.71,113.5 98.83,113.87 100.86,114.77 C 101.26,114.94 101.53,115.23 101.66,115.64 C 101.63,118.5 100.4,120.71 97.97,122.27 C 95.97,123.07 93.89,123.5 91.74,123.55 C 90.79,124.09 89.93,124.75 89.16,125.53 C 88.65,125.9 88.07,126.09 87.44,126.11 C 86.64,126.09 86.32,125.7 86.48,124.94 C 87.47,123.48 88.31,121.94 89,120.32 Z M 83.36,118.64 C 85,118.57 86.2,117.82 86.96,116.4 C 86.84,115.06 86.2,114.78 85.06,115.59 C 84.02,116.35 83.46,117.37 83.36,118.64 Z M 94.09,119.15 C 94.09,119.54 94.14,119.92 94.23,120.3 C 95.95,120.08 97.14,119.17 97.8,117.57 C 97.27,116.83 96.58,116.7 95.74,117.16 C 95.03,117.69 94.48,118.35 94.09,119.15 Z"/><path fill="none" stroke="#323266" stroke-width="0.5" stroke-opacity="0.992" d="M 70.06,26.59 C 71.19,26.3 72.34,26.16 73.5,26.17 C 104.5,26.18 135.5,26.18 166.5,26.16 C 168.41,26.1 170.18,26.56 171.81,27.54 C 172.19,27.72 172.58,27.88 172.98,28.02 C 173.16,28.48 173.41,28.89 173.74,29.25 C 174.14,29.86 174.53,30.49 174.91,31.11 C 175.12,31.55 175.34,31.98 175.58,32.41 C 175.69,32.63 175.79,32.85 175.9,33.08 C 176.06,33.46 176.21,33.85 176.35,34.24 C 177.03,36.14 177.01,38.03 176.27,39.92 C 156,74.53 135.69,109.12 115.34,143.69 C 113.94,145.95 112.34,148.05 110.53,149.99 C 108.64,151.69 106.45,152.84 103.98,153.43 C 102.33,153.72 100.68,153.75 99.03,153.54 C 69.86,147.79 40.72,141.92 11.59,135.94 C 7.64,134.08 4.93,131.09 3.48,126.96 C 3.21,125.64 3.25,124.32 3.61,123.02 C 4.32,121.24 5.25,119.58 6.39,118.04 C 24.95,90.16 43.29,62.14 61.41,33.97 C 62.46,32.35 63.64,30.84 64.95,29.44 C 66.46,28.15 68.17,27.2 70.06,26.59 Z M 16.21,119.95 C 17.01,121.08 18.13,121.71 19.55,121.85 C 26.92,123.15 34.28,124.45 41.64,125.75 C 59.62,128.54 77.56,131.56 95.45,134.81 C 97.32,135.1 99.16,134.98 100.95,134.44 C 101.72,133.87 102.37,133.18 102.91,132.39 C 120.82,102.68 138.81,73.01 156.88,43.39 C 157.85,41.77 158.66,40.08 159.33,38.32 C 159.71,37.26 159.38,36.58 158.33,36.26 C 157.09,35.8 155.81,35.54 154.5,35.47 C 127.52,35.49 100.54,35.49 73.56,35.49 C 71.19,35.53 69.37,36.55 68.09,38.57 C 51.4,64.46 34.61,90.28 17.74,116.05 C 17.12,117.32 16.61,118.62 16.21,119.95 Z M 63.95,81.02 C 64.14,79.48 64.61,78.04 65.37,76.69 C 69.01,71.04 72.6,65.35 76.13,59.63 C 76.57,58.63 76.87,57.58 77.05,56.5 C 77.6,51.83 78.35,47.2 79.29,42.59 C 79.47,41.62 79.94,40.81 80.68,40.16 C 81.09,40.2 81.38,40.41 81.58,40.78 C 81.92,42.08 82.52,43.26 83.37,44.31 C 84.42,47.11 85.56,49.87 86.78,52.6 C 87.2,53.31 87.81,53.79 88.59,54.05 C 90.89,54.33 93.19,54.57 95.5,54.78 C 105.17,55.02 114.84,55.44 124.49,56.03 C 125.84,56.11 127,56.59 127.97,57.48 C 128.22,59.02 128.05,60.52 127.46,61.98 C 123.42,68.55 119.39,75.13 115.38,81.71 C 112.53,85.97 108.57,87.72 103.5,86.96 C 92.86,85.61 82.19,84.59 71.48,83.91 C 69.28,83.59 67.1,83.1 64.97,82.44 C 64.41,82.13 64.07,81.65 63.95,81.02 Z M 148.12,61.87 C 145.86,65.03 143.86,68.34 142.11,71.79 C 140.31,74.47 138.59,77.2 136.98,80 C 135.41,82.72 133.77,85.41 132.06,88.05 C 130.66,90.32 129.28,92.6 127.91,94.89 C 126.28,97.51 124.69,100.16 123.14,102.82 C 122.17,104.49 121.18,106.14 120.17,107.78 C 117.47,112.05 114.84,116.35 112.26,120.69 C 110.19,124.13 108.12,127.58 106.05,131.02 C 105.2,132.6 104.15,134.04 102.91,135.33 C 101.09,136.99 98.95,137.55 96.5,137.01 C 92.66,136.46 88.83,135.84 85.01,135.16 C 81.35,134.45 77.69,133.82 74.01,133.26 C 71.66,132.89 69.31,132.51 66.96,132.13 C 65.29,131.83 63.62,131.52 61.95,131.22 C 59.96,130.84 57.97,130.49 55.97,130.19 C 53.94,129.91 51.92,129.61 49.9,129.29 C 48.34,129.02 46.79,128.72 45.24,128.4 C 43.81,128.09 42.38,127.88 40.92,127.76 C 39.32,127.35 37.68,126.97 35.99,126.65 C 35.33,125.94 34.5,125.53 33.51,125.43 C 32.55,125.58 31.59,125.65 30.62,125.65 C 28.26,125.17 25.88,124.88 23.47,124.8 C 22.69,124.76 22.01,124.99 21.44,125.48 C 21.7,126.05 21.79,126.65 21.72,127.28 C 21.29,128.61 21,129.98 20.87,131.38 C 20.34,132.39 19.87,133.43 19.47,134.49 C 21.3,135.7 23.32,136.51 25.52,136.92 C 26.65,137.15 27.77,137.12 28.89,136.84 C 30.47,137.74 32.12,138.01 33.86,137.65 C 37.13,138.86 40.5,139.73 43.96,140.24 C 45.64,140.52 47.3,140.83 48.96,141.17 C 50.61,141.51 52.27,141.85 53.92,142.19 C 55.6,142.53 57.28,142.84 58.97,143.14 C 60.63,143.44 62.3,143.76 63.96,144.08 C 65.63,144.42 67.29,144.75 68.96,145.08 C 72.6,145.87 76.26,146.58 79.94,147.21 C 86.11,148.51 92.31,149.72 98.52,150.83 C 102.82,151.38 106.53,150.15 109.64,147.14 C 112.16,144.04 114.35,140.71 116.19,137.16 C 118.79,132.77 121.38,128.37 123.96,123.97 C 125.73,121.06 127.47,118.13 129.2,115.2 C 130.2,113.49 131.22,111.8 132.25,110.11 C 134.21,106.78 136.17,103.46 138.16,100.15 C 139.59,97.85 140.98,95.52 142.32,93.17 C 143.71,90.82 145.11,88.49 146.53,86.17 C 148.68,82.86 150.55,79.4 152.14,75.8 C 152.66,75.73 153.05,75.46 153.32,75.01 C 155.15,72.02 156.79,68.93 158.21,65.74 C 158.55,65.88 158.82,65.79 159.01,65.46 C 160.07,63.8 161.07,62.11 162.01,60.38 C 163.04,58.74 163.78,56.97 164.24,55.1 C 164.3,54.52 164.16,54 163.81,53.54 C 162.42,52.24 160.87,51.19 159.15,50.38 C 157.47,49.59 155.96,49.8 154.61,51 C 152.04,54.39 149.88,58.01 148.12,61.87 Z M 80.91,62.01 C 81.36,62.47 81.91,62.72 82.55,62.77 C 88.55,62.95 94.53,63.32 100.51,63.88 C 101.88,63.9 103.12,63.49 104.21,62.65 C 105.01,61.72 104.78,61.15 103.52,60.95 C 97.52,60.56 91.51,60.23 85.5,59.99 C 84.26,60.02 83.05,60.21 81.87,60.56 C 81.36,60.91 81.04,61.39 80.91,62.01 Z M 76.13,69 C 76.57,69.29 77.04,69.52 77.55,69.7 C 80.19,70.08 82.84,70.41 85.5,70.69 C 93.92,71.13 102.32,71.72 110.71,72.47 C 111.95,72.42 113.14,72.16 114.28,71.69 C 115.24,70.69 115.01,70.03 113.6,69.71 C 102.85,68.82 92.08,68.06 81.31,67.44 C 79.39,67.38 77.66,67.9 76.13,69 Z M 71.16,76.75 C 72.89,77.38 74.67,77.8 76.5,78.01 C 83.84,78.67 91.17,79.35 98.5,80.05 C 99.73,80.04 100.89,79.76 101.98,79.21 C 103.26,78.13 103.11,77.37 101.51,76.94 C 93.51,76.24 85.5,75.53 77.5,74.82 C 76.17,74.83 74.85,74.95 73.55,75.18 C 72.56,75.41 71.76,75.93 71.16,76.75 Z M 62.04,94 C 63.58,89.3 66.78,86.35 71.62,85.15 C 73.57,84.91 75.2,85.51 76.49,86.95 C 77.1,88.79 76.84,90.5 75.69,92.07 C 73.7,95.06 70.97,97.02 67.5,97.96 C 65.7,98.35 64.1,97.96 62.68,96.81 C 62.21,95.94 62,95 62.04,94 Z M 84.72,97 C 84.91,95.22 85.62,93.67 86.84,92.35 C 90.09,88.39 94.16,87.1 99.04,88.46 C 100.82,90.54 100.95,92.74 99.43,95.05 C 97.27,98.27 94.3,100.29 90.51,101.09 C 88.71,101.38 87.07,101 85.58,99.96 C 85.02,99.06 84.73,98.08 84.72,97 Z M 32.66,113.34 C 33.9,109.8 35.7,106.54 38.06,103.57 C 39.39,101.69 40.96,101.42 42.79,102.78 C 42.99,103.95 43.11,105.13 43.14,106.32 C 43.26,106.38 43.39,106.45 43.51,106.51 C 45.19,105.38 46.89,104.29 48.62,103.22 C 49.24,103.01 49.88,102.9 50.53,102.9 C 51.12,102.87 51.56,103.11 51.84,103.62 C 50.55,106.15 49.13,108.62 47.57,111.03 C 46.66,112.11 45.75,113.19 44.85,114.28 C 44.36,114.6 43.83,114.79 43.24,114.83 C 42.84,114.96 42.52,114.87 42.3,114.55 C 42.96,113.02 43.67,111.5 44.4,109.99 C 44.62,109.68 44.59,109.4 44.32,109.15 C 43.13,109.77 42.04,110.54 41.04,111.48 C 39.97,112.11 39.36,111.83 39.22,110.63 C 39.31,109.96 39.44,109.3 39.62,108.65 C 39.45,108.23 39.15,108.11 38.72,108.27 C 38.16,109.01 37.68,109.81 37.28,110.67 C 36.59,111.31 35.93,111.98 35.3,112.68 C 34.4,112.84 33.52,113.06 32.66,113.34 Z M 72.04,108.77 C 70.46,109.16 68.93,109.01 67.44,108.33 C 66.13,108.39 65.78,108.98 66.39,110.1 C 68.31,110.91 69.17,112.34 68.95,114.4 C 68.45,115.23 68.13,116.12 67.98,117.07 C 66.23,117.77 64.4,118.19 62.5,118.31 C 60.48,118.1 58.82,117.21 57.52,115.64 C 58.25,115.35 58.96,115.02 59.66,114.65 C 61.26,114.99 62.85,115.1 64.46,114.99 C 64.93,114.67 64.98,114.29 64.61,113.85 C 63.77,113.35 62.98,112.78 62.25,112.15 C 61.32,110.69 61.44,109.3 62.62,107.98 C 64.5,105.98 66.8,105.23 69.51,105.74 C 70.98,105.99 72,106.78 72.57,108.09 C 72.42,108.34 72.24,108.57 72.04,108.77 Z M 133.37,118.83 C 134.33,115.66 135.79,112.74 137.75,110.06 C 138.67,108.99 139.58,107.96 140.47,106.96 C 141.62,108.23 142.71,109.56 143.74,110.95 C 146.01,114.77 148.27,118.58 150.53,122.4 C 150.29,122.73 149.96,122.85 149.53,122.75 C 146.22,122.13 142.92,121.47 139.63,120.78 C 137.5,120.26 135.42,119.61 133.37,118.83 Z M 45.18,118.98 C 45.88,118.25 46.68,117.65 47.59,117.18 C 48.25,116.51 48.8,115.76 49.26,114.93 C 50.12,112.51 50.71,110.02 51.01,107.46 C 51.69,106.78 52.51,106.64 53.44,107.02 C 53.65,107.2 53.85,107.38 54.05,107.56 C 54.01,109.01 53.86,110.41 53.61,111.77 C 54.08,111.77 54.47,111.59 54.77,111.22 C 55.66,110.05 56.71,109.07 57.94,108.26 C 59.01,107.74 59.98,107.85 60.85,108.58 C 59.94,109.89 58.86,111.07 57.61,112.11 C 55.33,114.18 53,116.19 50.62,118.15 C 49.18,119.38 47.54,119.91 45.69,119.74 C 45.35,119.6 45.18,119.34 45.18,118.98 Z M 81.05,113.74 C 80.67,113.89 80.35,114.11 80.09,114.43 C 79.3,115.54 78.7,116.74 78.29,118.02 C 77.54,119.66 76.31,120.31 74.59,119.96 C 74.01,119.36 73.97,118.71 74.44,118 C 75.11,117.01 75.79,116.03 76.48,115.05 C 76.99,113.56 76.53,113.13 75.1,113.74 C 74.09,115.01 73.04,116.26 71.96,117.48 C 71.49,118.05 70.92,118.47 70.24,118.73 C 68.54,119.34 67.78,118.79 67.98,117.07 C 68.62,116.55 69.24,115.99 69.82,115.4 C 70.81,113.68 71.89,112.02 73.06,110.42 C 73.56,109.34 74.17,108.35 74.91,107.43 C 75.68,106.95 76.51,106.84 77.37,107.12 C 77.86,107.4 77.99,107.8 77.79,108.32 C 77.38,108.94 77.15,109.61 77.11,110.34 C 78.08,110.78 79.09,111.12 80.15,111.36 C 80.73,112.04 81.03,112.84 81.05,113.74 Z M 90.64,115.89 C 90.15,117.46 89.25,118.73 87.93,119.69 C 87.53,120.24 87.03,120.65 86.42,120.95 C 83,122.63 80.49,121.75 78.88,118.32 C 79.32,118.16 79.67,117.88 79.93,117.49 C 80.49,116.31 81.14,115.19 81.87,114.11 C 84.03,112.19 86.44,111.71 89.11,112.65 C 90.59,113.31 91.1,114.39 90.64,115.89 Z M 89,120.32 C 90.25,119.56 90.97,118.45 91.17,117.01 C 91.87,116.27 92.5,115.48 93.07,114.62 C 93.46,114.17 93.94,113.85 94.5,113.64 C 96.71,113.5 98.83,113.87 100.86,114.77 C 101.26,114.94 101.53,115.23 101.66,115.64 C 101.63,118.5 100.4,120.71 97.97,122.27 C 95.97,123.07 93.89,123.5 91.74,123.55 C 90.79,124.09 89.93,124.75 89.16,125.53 C 88.65,125.9 88.07,126.09 87.44,126.11 C 86.64,126.09 86.32,125.7 86.48,124.94 C 87.47,123.48 88.31,121.94 89,120.32 Z"/></g>
<g><path fill="#e1e1e8" stroke="#e1e1e8" stroke-width="0.5" d="M 74.01,133.26 C 77.69,133.82 81.35,134.45 85.01,135.16 C 85.02,135.69 84.78,136.1 84.3,136.37 C 85.5,136.71 86.61,137.21 87.64,137.87 C 87.17,139.63 86.87,141.43 86.74,143.26 C 86.43,144.48 85.97,145.63 85.36,146.71 C 84.22,145.9 82.96,145.59 81.57,145.79 C 80.63,145.84 80.09,146.32 79.94,147.21 C 76.26,146.58 72.6,145.87 68.96,145.08 C 69.28,144.42 69.81,144.07 70.55,144.02 C 71.96,143.94 73.37,144.03 74.76,144.27 C 74.93,144.09 75.11,143.9 75.28,143.71 C 75.17,142.36 75.18,141.01 75.31,139.66 C 76.15,138.42 76.38,137.08 76.01,135.65 C 75.05,135.36 74.16,134.95 73.35,134.43 C 73.41,133.95 73.62,133.56 74.01,133.26 Z"/></g>
<g><path fill="#c8c8d6" d="M 66.96,132.13 C 69.31,132.51 71.66,132.89 74.01,133.26 C 73.62,133.56 73.41,133.95 73.35,134.43 C 74.16,134.95 75.05,135.36 76.01,135.65 C 76.38,137.08 76.15,138.42 75.31,139.66 C 75.18,141.01 75.17,142.36 75.28,143.71 C 75.11,143.9 74.93,144.09 74.76,144.27 C 73.37,144.03 71.96,143.94 70.55,144.02 C 69.81,144.07 69.28,144.42 68.96,145.08 C 67.29,144.75 65.63,144.42 63.96,144.08 C 64.22,143.39 64.73,142.98 65.47,142.86 C 66.41,142.81 67.35,142.77 68.29,142.73 C 68.45,142.6 68.6,142.47 68.75,142.34 C 68.87,140.34 69.27,138.4 69.96,136.52 C 70.07,135.91 70.05,135.31 69.9,134.72 C 69.19,134.35 68.44,134.09 67.63,133.94 C 67.07,133.46 66.85,132.86 66.96,132.13 Z"/></g>
<g><path fill="#b6b6c8" stroke="#b6b6c8" stroke-width="0.5" d="M 61.95,131.22 C 63.62,131.52 65.29,131.83 66.96,132.13 C 66.85,132.86 67.07,133.46 67.63,133.94 C 68.44,134.09 69.19,134.35 69.9,134.72 C 70.05,135.31 70.07,135.91 69.96,136.52 C 69.27,138.4 68.87,140.34 68.75,142.34 C 68.6,142.47 68.45,142.6 68.29,142.73 C 67.35,142.77 66.41,142.81 65.47,142.86 C 64.73,142.98 64.22,143.39 63.96,144.08 C 62.3,143.76 60.63,143.44 58.97,143.14 C 59.06,142.73 59.28,142.41 59.63,142.16 C 60.69,141.98 61.64,141.57 62.48,140.94 C 62.82,139.37 63.26,137.83 63.81,136.31 C 64.1,135.45 64.14,134.58 63.93,133.7 C 63.07,133.26 62.2,132.85 61.33,132.47 C 61.48,132.03 61.69,131.61 61.95,131.22 Z"/></g>
<g><path fill="#a3a3ba" d="M 55.97,130.19 C 57.97,130.49 59.96,130.84 61.95,131.22 C 61.69,131.61 61.48,132.03 61.33,132.47 C 62.2,132.85 63.07,133.26 63.93,133.7 C 64.14,134.58 64.1,135.45 63.81,136.31 C 63.26,137.83 62.82,139.37 62.48,140.94 C 61.64,141.57 60.69,141.98 59.63,142.16 C 59.28,142.41 59.06,142.73 58.97,143.14 C 57.28,142.84 55.6,142.53 53.92,142.19 C 54.01,141.77 54.24,141.44 54.6,141.19 C 55.67,140.95 56.67,140.57 57.59,140.03 C 57.71,137.78 58.17,135.58 58.96,133.45 C 59.05,132.9 58.83,132.53 58.31,132.34 C 56.7,132.47 55.92,131.75 55.97,130.19 Z"/></g>
<g><path fill="#9292ae" stroke="#9292ae" stroke-width="0.5" d="M 49.9,129.29 C 51.92,129.61 53.94,129.91 55.97,130.19 C 55.92,131.75 56.7,132.47 58.31,132.34 C 58.83,132.53 59.05,132.9 58.96,133.45 C 58.17,135.58 57.71,137.78 57.59,140.03 C 56.67,140.57 55.67,140.95 54.6,141.19 C 54.24,141.44 54.01,141.77 53.92,142.19 C 52.27,141.85 50.61,141.51 48.96,141.17 C 49.9,140.34 50.81,139.44 51.67,138.48 C 53.19,136.25 53.27,133.96 51.92,131.61 C 51.51,131.1 51,130.69 50.39,130.39 C 50.13,130.07 49.97,129.7 49.9,129.29 Z"/></g>
<g><path fill="#8281a1" d="M 45.24,128.4 C 46.79,128.72 48.34,129.02 49.9,129.29 C 49.97,129.7 50.13,130.07 50.39,130.39 C 51,130.69 51.51,131.1 51.92,131.61 C 53.27,133.96 53.19,136.25 51.67,138.48 C 50.81,139.44 49.9,140.34 48.96,141.17 C 47.3,140.83 45.64,140.52 43.96,140.24 C 44.88,139.36 45.76,138.43 46.62,137.44 C 48.01,135.23 48.11,132.96 46.92,130.61 C 46.64,130.27 46.29,130 45.86,129.82 C 45.44,129.44 45.23,128.97 45.24,128.4 Z"/></g>
<g><path fill="#6a6a8f" stroke="#6a6a8f" stroke-width="0.5" d="M 40.92,127.76 C 42.38,127.88 43.81,128.09 45.24,128.4 C 45.23,128.97 45.44,129.44 45.86,129.82 C 46.29,130 46.64,130.27 46.92,130.61 C 48.11,132.96 48.01,135.23 46.62,137.44 C 45.76,138.43 44.88,139.36 43.96,140.24 C 40.5,139.73 37.13,138.86 33.86,137.65 C 36.68,136.06 38.05,133.62 37.98,130.35 C 37.99,129.67 37.8,129.05 37.42,128.48 C 38.54,128.07 39.7,127.83 40.92,127.76 Z"/></g>
<g><path fill="#ededf1" stroke="#ededf1" stroke-width="0.5" d="M 112.26,120.69 C 112.72,120.75 113.02,121 113.18,121.44 C 113.25,121.99 113.43,122.51 113.7,122.99 C 115.69,124.3 117.66,125.62 119.63,126.95 C 120.15,127.05 120.56,126.87 120.84,126.41 C 121.17,125.68 121.54,124.97 121.95,124.29 C 122.56,123.81 123.23,123.7 123.96,123.97 C 121.38,128.37 118.79,132.77 116.19,137.16 C 116.12,136.62 115.87,136.2 115.44,135.87 C 115.23,135.91 115.03,135.94 114.82,135.97 C 114.15,137.38 113.34,138.7 112.4,139.95 C 112.07,140.51 111.63,140.67 111.06,140.42 C 109.31,138.82 107.47,137.34 105.52,135.99 C 105.47,135.84 105.42,135.7 105.37,135.55 C 105.92,134.46 106.46,133.37 107,132.28 C 107.18,131.5 106.86,131.08 106.05,131.02 C 108.12,127.58 110.19,124.13 112.26,120.69 Z"/></g>
<g><path fill="#d9d9e2" stroke="#d9d9e2" stroke-width="0.5" d="M 120.17,107.78 C 120.86,108.08 121.13,108.62 121,109.41 C 120.13,110.89 119.24,112.36 118.31,113.82 C 118.19,114.5 118.41,115.05 118.98,115.47 C 119.63,115.83 120.29,116.19 120.94,116.56 C 122.05,117.69 123.22,118.72 124.46,119.66 C 125.06,119.27 125.52,118.76 125.85,118.12 C 126.52,116.77 127.2,115.44 127.89,114.12 C 128.78,113.89 129.21,114.25 129.2,115.2 C 127.47,118.13 125.73,121.06 123.96,123.97 C 123.23,123.7 122.56,123.81 121.95,124.29 C 121.54,124.97 121.17,125.68 120.84,126.41 C 120.56,126.87 120.15,127.05 119.63,126.95 C 117.66,125.62 115.69,124.3 113.7,122.99 C 113.43,122.51 113.25,121.99 113.18,121.44 C 113.02,121 112.72,120.75 112.26,120.69 C 114.84,116.35 117.47,112.05 120.17,107.78 Z"/></g>
<g><path fill="#c5c5d4" stroke="#c5c5d4" stroke-width="0.5" d="M 123.14,102.82 C 123.94,103.03 124.24,103.54 124.03,104.37 C 123.34,105.38 122.75,106.44 122.29,107.57 C 123.2,107.84 124.1,108.16 124.99,108.52 C 126.55,109.5 128,110.6 129.32,111.82 C 130,111.01 130.55,110.12 130.96,109.15 C 131.82,108.84 132.25,109.16 132.25,110.11 C 131.22,111.8 130.2,113.49 129.2,115.2 C 129.21,114.25 128.78,113.89 127.89,114.12 C 127.2,115.44 126.52,116.77 125.85,118.12 C 125.52,118.76 125.06,119.27 124.46,119.66 C 123.22,118.72 122.05,117.69 120.94,116.56 C 120.29,116.19 119.63,115.83 118.98,115.47 C 118.41,115.05 118.19,114.5 118.31,113.82 C 119.24,112.36 120.13,110.89 121,109.41 C 121.13,108.62 120.86,108.08 120.17,107.78 C 121.18,106.14 122.17,104.49 123.14,102.82 Z"/></g>
<g><path fill="#b1b1c5" stroke="#b1b1c5" stroke-width="0.5" d="M 127.91,94.89 C 128.41,94.89 128.72,95.13 128.87,95.61 C 128.69,96.68 128.35,97.7 127.83,98.67 C 127.91,98.86 127.98,99.06 128.06,99.25 C 130.09,100.57 132.22,101.71 134.44,102.67 C 135.55,101.73 136.37,100.57 136.91,99.18 C 137.61,99.06 138.03,99.39 138.16,100.15 C 136.17,103.46 134.21,106.78 132.25,110.11 C 132.25,109.16 131.82,108.84 130.96,109.15 C 130.55,110.12 130,111.01 129.32,111.82 C 128,110.6 126.55,109.5 124.99,108.52 C 124.1,108.16 123.2,107.84 122.29,107.57 C 122.75,106.44 123.34,105.38 124.03,104.37 C 124.24,103.54 123.94,103.03 123.14,102.82 C 124.69,100.16 126.28,97.51 127.91,94.89 Z"/></g>
<g><path fill="#9b9bb4" stroke="#9b9bb4" stroke-width="0.5" d="M 132.06,88.05 C 132.53,87.94 132.86,88.11 133.03,88.57 C 133.03,89.33 132.8,90.02 132.35,90.64 C 133.32,91.17 134.32,91.68 135.35,92.16 C 136.6,93 137.78,93.94 138.89,94.97 C 139.32,95.01 139.64,94.82 139.85,94.42 C 140.25,93.72 140.62,93 140.95,92.26 C 141.66,92.11 142.12,92.41 142.32,93.17 C 140.98,95.52 139.59,97.85 138.16,100.15 C 138.03,99.39 137.61,99.06 136.91,99.18 C 136.37,100.57 135.55,101.73 134.44,102.67 C 132.22,101.71 130.09,100.57 128.06,99.25 C 127.98,99.06 127.91,98.86 127.83,98.67 C 128.35,97.7 128.69,96.68 128.87,95.61 C 128.72,95.13 128.41,94.89 127.91,94.89 C 129.28,92.6 130.66,90.32 132.06,88.05 Z"/></g>
<g><path fill="#8787a5" stroke="#8787a5" stroke-width="0.5" d="M 136.98,80 C 137.86,80.41 138.06,81.09 137.6,82.02 C 137.94,83.76 138.86,85.12 140.36,86.09 C 141.46,86.49 142.51,87 143.5,87.62 C 144.21,86.86 144.89,86.09 145.56,85.3 C 145.98,85.48 146.31,85.76 146.53,86.17 C 145.11,88.49 143.71,90.82 142.32,93.17 C 142.12,92.41 141.66,92.11 140.95,92.26 C 140.62,93 140.25,93.72 139.85,94.42 C 139.64,94.82 139.32,95.01 138.89,94.97 C 137.78,93.94 136.6,93 135.35,92.16 C 134.32,91.68 133.32,91.17 132.35,90.64 C 132.8,90.02 133.03,89.33 133.03,88.57 C 132.86,88.11 132.53,87.94 132.06,88.05 C 133.77,85.41 135.41,82.72 136.98,80 Z"/></g>
<g><path fill="#707094" stroke="#707094" stroke-width="0.5" d="M 142.11,71.79 C 144.49,73.98 147.23,75.49 150.34,76.33 C 150.79,75.33 151.39,75.16 152.14,75.8 C 150.55,79.4 148.68,82.86 146.53,86.17 C 146.31,85.76 145.98,85.48 145.56,85.3 C 144.89,86.09 144.21,86.86 143.5,87.62 C 142.51,87 141.46,86.49 140.36,86.09 C 138.86,85.12 137.94,83.76 137.6,82.02 C 138.06,81.09 137.86,80.41 136.98,80 C 138.59,77.2 140.31,74.47 142.11,71.79 Z"/></g>
<g><path fill="#595982" stroke="#595982" stroke-width="0.5" d="M 148.12,61.87 C 149.45,63.17 150.97,64.2 152.65,64.99 C 154.23,65.66 155.85,65.77 157.49,65.32 C 157.84,65.26 158.08,65.4 158.21,65.74 C 156.79,68.93 155.15,72.02 153.32,75.01 C 153.05,75.46 152.66,75.73 152.14,75.8 C 151.39,75.16 150.79,75.33 150.34,76.33 C 147.23,75.49 144.49,73.98 142.11,71.79 C 143.86,68.34 145.86,65.03 148.12,61.87 Z"/></g>
<g><path fill="#fbfbfc" stroke="#fbfbfc" stroke-width="0.5" d="M 106.05,131.02 C 106.86,131.08 107.18,131.5 107,132.28 C 106.46,133.37 105.92,134.46 105.37,135.55 C 105.42,135.7 105.47,135.84 105.52,135.99 C 107.47,137.34 109.31,138.82 111.06,140.42 C 111.63,140.67 112.07,140.51 112.4,139.95 C 113.34,138.7 114.15,137.38 114.82,135.97 C 115.03,135.94 115.23,135.91 115.44,135.87 C 115.87,136.2 116.12,136.62 116.19,137.16 C 114.35,140.71 112.16,144.04 109.64,147.14 C 106.53,150.15 102.82,151.38 98.52,150.83 C 92.31,149.72 86.11,148.51 79.94,147.21 C 80.09,146.32 80.63,145.84 81.57,145.79 C 82.96,145.59 84.22,145.9 85.36,146.71 C 85.97,145.63 86.43,144.48 86.74,143.26 C 86.87,141.43 87.17,139.63 87.64,137.87 C 86.61,137.21 85.5,136.71 84.3,136.37 C 84.78,136.1 85.02,135.69 85.01,135.16 C 88.83,135.84 92.66,136.46 96.5,137.01 C 98.95,137.55 101.09,136.99 102.91,135.33 C 104.15,134.04 105.2,132.6 106.05,131.02 Z"/></g>
<g><path fill="#333366" fill-opacity="0.071" stroke="#333366" stroke-width="0.5" stroke-opacity="0.071" d="M 174.91,31.11 C 175.83,31.1 176.05,31.53 175.58,32.41 C 175.34,31.98 175.12,31.55 174.91,31.11 Z"/></g>
<g><path fill="#333366" fill-opacity="0.125" stroke="#333366" stroke-width="0.5" stroke-opacity="0.125" d="M 172.98,28.02 C 173.87,27.98 174.12,28.39 173.74,29.25 C 173.41,28.89 173.16,28.48 172.98,28.02 Z"/></g>
<g><path fill="#54547f" stroke="#54547f" stroke-width="0.5" d="M 35.99,126.65 C 37.68,126.97 39.32,127.35 40.92,127.76 C 39.7,127.83 38.54,128.07 37.42,128.48 C 37.8,129.05 37.99,129.67 37.98,130.35 C 38.05,133.62 36.68,136.06 33.86,137.65 C 32.12,138.01 30.47,137.74 28.89,136.84 C 30.39,135.77 31.37,134.33 31.83,132.52 C 32.1,130.86 32.16,129.19 32,127.51 C 32.15,127.34 32.3,127.16 32.45,126.99 C 33.64,126.98 34.82,126.86 35.99,126.65 Z"/></g>
<g><path fill="#424271" stroke="#424271" stroke-width="0.5" d="M 158.21,65.74 C 158.08,65.4 157.84,65.26 157.49,65.32 C 155.85,65.77 154.23,65.66 152.65,64.99 C 150.97,64.2 149.45,63.17 148.12,61.87 C 149.88,58.01 152.04,54.39 154.61,51 C 155.96,49.8 157.47,49.59 159.15,50.38 C 160.87,51.19 162.42,52.24 163.81,53.54 C 164.16,54 164.3,54.52 164.24,55.1 C 163.78,56.97 163.04,58.74 162.01,60.38 C 161.07,62.11 160.07,63.8 159.01,65.46 C 158.82,65.79 158.55,65.88 158.21,65.74 Z M 35.99,126.65 C 34.82,126.86 33.64,126.98 32.45,126.99 C 32.3,127.16 32.15,127.34 32,127.51 C 32.16,129.19 32.1,130.86 31.83,132.52 C 31.37,134.33 30.39,135.77 28.89,136.84 C 27.77,137.12 26.65,137.15 25.52,136.92 C 23.32,136.51 21.3,135.7 19.47,134.49 C 19.87,133.43 20.34,132.39 20.87,131.38 C 21,129.98 21.29,128.61 21.72,127.28 C 21.79,126.65 21.7,126.05 21.44,125.48 C 22.01,124.99 22.69,124.76 23.47,124.8 C 25.88,124.88 28.26,125.17 30.62,125.65 C 31.59,125.65 32.55,125.58 33.51,125.43 C 34.5,125.53 35.33,125.94 35.99,126.65 Z"/></g>
<g><path fill="#333366" fill-opacity="0.365" stroke="#333366" stroke-width="0.5" stroke-opacity="0.365" d="M 90.64,115.89 C 90.82,116.26 90.99,116.64 91.17,117.01 C 90.97,118.45 90.25,119.56 89,120.32 C 88.64,120.11 88.28,119.9 87.93,119.69 C 89.25,118.73 90.15,117.46 90.64,115.89 Z"/></g>
<g><path fill="#333366" fill-opacity="0.333" stroke="#333366" stroke-width="0.5" stroke-opacity="0.333" d="M 81.05,113.74 C 81.32,113.86 81.6,113.99 81.87,114.11 C 81.14,115.19 80.49,116.31 79.93,117.49 C 79.67,117.88 79.32,118.16 78.88,118.32 C 78.68,118.22 78.49,118.12 78.29,118.02 C 78.7,116.74 79.3,115.54 80.09,114.43 C 80.35,114.11 80.67,113.89 81.05,113.74 Z"/></g>
<g><path fill="#333366" fill-opacity="0.047" stroke="#333366" stroke-width="0.5" stroke-opacity="0.047" d="M 72.04,108.77 C 72.59,109.18 72.94,109.73 73.06,110.42 C 71.89,112.02 70.81,113.68 69.82,115.4 C 69.24,115.99 68.62,116.55 67.98,117.07 C 68.13,116.12 68.45,115.23 68.95,114.4 C 69.17,112.34 68.31,110.91 66.39,110.1 C 65.78,108.98 66.13,108.39 67.44,108.33 C 68.93,109.01 70.46,109.16 72.04,108.77 Z"/></g>
<g><path fill="#333366" fill-opacity="0.102" stroke="#333366" stroke-width="0.5" stroke-opacity="0.102" d="M 171.81,27.54 C 172.21,27.26 172.62,27.21 173.04,27.4 C 173.02,27.6 173,27.81 172.98,28.02 C 172.58,27.88 172.19,27.72 171.81,27.54 Z M 175.9,33.08 C 176.55,33.2 176.7,33.59 176.35,34.24 C 176.21,33.85 176.06,33.46 175.9,33.08 Z"/></g>
</svg>
